Coordinates
version=1
nRows=21
nColumns=22
inDegrees=yes

Units are S.I. units (second, meters, Newtons, ...)
If the header above contains a line with 'inDegrees', this indicates whether rotational values are in degrees (yes) or radians (no).

endheader
time	pelvis_tilt	pelvis_list	pelvis_rotation	pelvis_tx	pelvis_ty	pelvis_tz	hip_flexion_r	hip_adduction_r	hip_rotation_r	knee_angle_r	ankle_angle_r	subtalar_angle_r	hip_flexion_l	hip_adduction_l	hip_rotation_l	knee_angle_l	ankle_angle_l	subtalar_angle_l	lumbar_extension	lumbar_bending	lumbar_rotation
      1.36000000	     -3.87833235	     -0.32748704	    -16.67263780	     -0.69115529	      0.89630934	     -0.60999963	     -7.17977455	      4.52788041	      0.22564122	    -16.75996690	     23.92440497	     -3.19623420	     36.40556279	     -1.87730555	      2.34437087	    -22.38502340	      5.68777825	      2.45124848	    -11.37721614	     -1.00397477	      3.90278775
      1.37000000	     -3.96412999	     -0.28573176	    -16.59170660	     -0.68392814	      0.89463318	     -0.60900858	     -7.66446106	      4.44475488	      0.24595826	    -16.62506082	     23.98654429	     -3.12307492	     36.56621404	     -1.76478501	      2.40493252	    -22.17928735	      5.69299625	      2.54016492	    -11.16895546	     -1.06822830	      4.01088754
      1.38000000	     -4.04825065	     -0.25262669	    -16.49943412	     -0.67645299	      0.89301375	     -0.60803634	     -8.18278593	      4.36319616	      0.24599341	    -16.45835869	     23.98720673	     -3.02701440	     36.71450403	     -1.64991655	      2.45107863	    -22.14544655	      5.63222939	      2.62415084	    -10.95825064	     -1.11996484	      4.09701225
      1.39000000	     -4.08919580	     -0.23524748	    -16.38324738	     -0.66876387	      0.89152784	     -0.60706853	     -8.76460692	      4.28398726	      0.21559299	    -16.28803063	     23.86889379	     -2.79434371	     36.82483988	     -1.51673420	      2.52919643	    -22.32550293	      5.48606966	      2.76548145	    -10.80505675	     -1.17749781	      4.19640734
      1.40000000	     -4.19433164	     -0.18239773	    -16.28074108	     -0.66083494	      0.88999388	     -0.60607362	     -9.27978924	      4.18333635	      0.21976423	    -16.12390795	     23.78646745	     -2.73234352	     37.02807716	     -1.37766649	      2.50376096	    -22.73309993	      5.29594268	      2.76083446	    -10.55017830	     -1.25741152	      4.28932096
      1.41000000	     -4.26884442	     -0.16743710	    -16.13155677	     -0.65270824	      0.88863931	     -0.60515316	     -9.84832778	      4.11820594	      0.22689223	    -15.95833114	     23.47660569	     -2.47831270	     37.23122410	     -1.22871079	      2.49955642	    -23.38334249	      4.95203720	      2.71547547	    -10.35153213	     -1.29872034	      4.32876312
      1.42000000	     -4.34440920	     -0.11696120	    -15.98350861	     -0.64431813	      0.88739417	     -0.60422754	    -10.40844617	      4.00920658	      0.21517659	    -15.80966515	     23.15233749	     -2.27138767	     37.46298057	     -1.04628302	      2.42814000	    -24.23636722	      4.56371533	      2.62163641	    -10.12589730	     -1.38376708	      4.36497687
      1.43000000	     -4.40943179	     -0.04703708	    -15.80796688	     -0.63567082	      0.88631524	     -0.60336220	    -10.97892127	      3.87620799	      0.19753182	    -15.67060716	     22.72861242	     -2.02432411	     37.71550722	     -0.82010006	      2.34402555	    -25.27112223	      4.14273682	      2.47771311	     -9.89873612	     -1.48852403	      4.37571281
      1.44000000	     -4.45603962	      0.05524996	    -15.62023375	     -0.62678422	      0.88543028	     -0.60250373	    -11.55179508	      3.70415919	      0.17498048	    -15.56103745	     22.20925778	     -1.76367250	     37.97694241	     -0.54854566	      2.25385602	    -26.44995896	      3.71498668	      2.31104739	     -9.67534119	     -1.64025694	      4.36572519
      1.45000000	     -4.48210187	      0.20201601	    -15.42431457	     -0.61764233	      0.88476181	     -0.60166202	    -12.12175610	      3.47814564	      0.15634215	    -15.48804373	     21.60091525	     -1.48122167	     38.22711782	     -0.22527844	      2.15307668	    -27.70986744	      3.32189881	      2.14672204	     -9.45191904	     -1.84743590	      4.34906673
      1.46000000	     -4.48305350	      0.40424129	    -15.23893993	     -0.60827082	      0.88432242	     -0.60076751	    -12.68014769	      3.18699626	      0.15087316	    -15.46830422	     20.90803234	     -1.19531622	     38.44132115	      0.14201376	      2.03192114	    -28.98884400	      2.97060258	      2.02480030	     -9.23158285	     -2.13284695	      4.34400649
      1.47000000	     -4.46586683	      0.66405700	    -15.08581510	     -0.59869656	      0.88410819	     -0.59977254	    -13.20094053	      2.82810600	      0.16516387	    -15.52922584	     20.12431649	     -0.97139144	     38.59707051	      0.53533056	      1.87712402	    -30.21735179	      2.64162039	      1.98385125	     -9.00388063	     -2.50378863	      4.37570669
      1.48000000	     -4.41755150	      0.97961816	    -14.97104637	     -0.58892007	      0.88413663	     -0.59866233	    -13.69877001	      2.39948724	      0.20987173	    -15.66753132	     19.26873044	     -0.69431931	     38.65386104	      0.94766873	      1.66686925	    -31.33952609	      2.35726836	      2.02312932	     -8.78314517	     -2.95958282	      4.44194337
      1.49000000	     -4.39553745	      1.33331858	    -14.90167455	     -0.57903773	      0.88430806	     -0.59743381	    -14.06263989	      1.93628326	      0.27614440	    -15.97090703	     18.32965380	     -0.59984960	     38.66125940	      1.34549992	      1.40960926	    -32.33181624	      2.13872763	      2.10840052	     -8.51313035	     -3.46127971	      4.54839005
      1.50000000	     -4.30455572	      1.73467278	    -14.90327689	     -0.56899530	      0.88478624	     -0.59601160	    -14.44446606	      1.39715729	      0.39729330	    -16.33234791	     17.35785751	     -0.36447950	     38.48927193	      1.73981469	      1.04508663	    -33.15061149	      1.95393364	      2.33731049	     -8.29085364	     -4.05846771	      4.72172803
      1.51000000	     -4.27775147	      2.13599950	    -14.94872627	     -0.55895327	      0.88535478	     -0.59449953	    -14.62781351	      0.87241716	      0.52868350	    -16.89707061	     16.28220968	     -0.32546457	     38.28617760	      2.09674591	      0.68962851	    -33.81395794	      1.89214764	      2.51301717	     -7.99060110	     -4.64128586	      4.94760289
      1.52000000	     -4.25393604	      2.54219230	    -15.04825961	     -0.54888898	      0.88610650	     -0.59283662	    -14.69924356	      0.33878812	      0.67030962	    -17.61651474	     15.12327696	     -0.31661251	     37.98449248	      2.42068749	      0.28055273	    -34.32589194	      1.96315370	      2.67679777	     -7.67530088	     -5.24392890	      5.20257887
      1.53000000	     -4.24600711	      2.93696530	    -15.18539861	     -0.53885070	      0.88702664	     -0.59110445	    -14.62697399	     -0.18425729	      0.80397192	    -18.52211446	     13.83260627	     -0.30057402	     37.59874489	      2.72102751	     -0.13059521	    -34.68853594	      2.17044895	      2.77976230	     -7.34119027	     -5.82778706	      5.46213005
      1.54000000	     -4.23526165	      3.31037514	    -15.35895832	     -0.52887784	      0.88814211	     -0.58932412	    -14.41263048	     -0.69644393	      0.89864004	    -19.64143438	     12.37468309	     -0.15596880	     37.11076343	      3.00155181	     -0.53024720	    -34.90412664	      2.49258304	      2.78955132	     -7.01905202	     -6.38524441	      5.73755762
      1.55000000	     -4.24728414	      3.66680486	    -15.54028417	     -0.51897354	      0.88940141	     -0.58753226	    -14.03971624	     -1.18635880	      0.95411835	    -20.95033079	     10.69473364	      0.13561756	     36.55997202	      3.27896212	     -0.89166705	    -34.98488707	      2.89869135	      2.68227651	     -6.67900733	     -6.91016830	      5.96358940
      1.56000000	     -4.27021144	      3.99831734	    -15.71774180	     -0.50916347	      0.89079991	     -0.58577417	    -13.51381009	     -1.65166518	      0.93894906	    -22.45811399	      8.80386074	      0.54081547	     35.94532963	      3.56003699	     -1.19618094	    -34.94549861	      3.35176459	      2.49200373	     -6.34608439	     -7.39085813	      6.13030274
